<svg xmlns="http://www.w3.org/2000/svg" viewBox="0 0 48 48"><defs><style>.cls-1{fill:#201602;}</style></defs><title>Asset 24ldpi</title><g id="Layer_2" data-name="Layer 2"><g id="layer_1-2" data-name="layer 1"><path class="cls-1" d="M10,38c-2.76,0-5-2.69-5-6a4.68,4.68,0,0,1,5-5,4.68,4.68,0,0,1,5,5C15,35.31,12.76,38,10,38Zm0-9a2.72,2.72,0,0,0-3,3c0,2.21,1.35,4,3,4s3-1.79,3-4A2.72,2.72,0,0,0,10,29Z"/><path class="cls-1" d="M2,48H0V41.58a5,5,0,0,1,4.45-5L9.89,36l.22,2-5.44.61a3,3,0,0,0-2.67,3Z"/><rect class="cls-1" x="4" y="42" width="2" height="6"/><rect class="cls-1" x="14" y="42" width="2" height="6"/><path class="cls-1" d="M24,38c-2.76,0-5-2.69-5-6a4.68,4.68,0,0,1,5-5,4.68,4.68,0,0,1,5,5C29,35.31,26.76,38,24,38Zm0-9a2.72,2.72,0,0,0-3,3c0,2.21,1.35,4,3,4s3-1.79,3-4A2.72,2.72,0,0,0,24,29Z"/><path class="cls-1" d="M16,48H14V41.58a5,5,0,0,1,4.45-5l5.44-.6.22,2-5.44.61a3,3,0,0,0-2.67,3Z"/><rect class="cls-1" x="18" y="42" width="2" height="6"/><path class="cls-1" d="M34,48H32V41.58a3,3,0,0,0-2.67-3L23.89,38l.22-2,5.44.6a5,5,0,0,1,4.45,5Z"/><rect class="cls-1" x="28" y="42" width="2" height="6"/><path class="cls-1" d="M38,38c-2.76,0-5-2.69-5-6a4.68,4.68,0,0,1,5-5,4.68,4.68,0,0,1,5,5C43,35.31,40.76,38,38,38Zm0-9a2.72,2.72,0,0,0-3,3c0,2.21,1.35,4,3,4s3-1.79,3-4A2.72,2.72,0,0,0,38,29Z"/><rect class="cls-1" x="32" y="42" width="2" height="6"/><path class="cls-1" d="M48,48H46V41.58a3,3,0,0,0-2.67-3L37.89,38l.22-2,5.44.6a5,5,0,0,1,4.45,5Z"/><rect class="cls-1" x="42" y="42" width="2" height="6"/><path class="cls-1" d="M35,26H33V15H15V26H13V14a1,1,0,0,1,1-1H34a1,1,0,0,1,1,1Z"/><rect class="cls-1" x="11" y="13" width="26" height="2"/><path class="cls-1" d="M24,9c-2.21,0-4-2.24-4-5a3.71,3.71,0,0,1,4-4,3.71,3.71,0,0,1,4,4C28,6.76,26.21,9,24,9Zm0-7c-1.79,0-2,1.14-2,2,0,1.6.93,3,2,3s2-1.4,2-3C26,3.14,25.79,2,24,2Z"/><path class="cls-1" d="M31,14H29V10.69a1,1,0,0,0-.83-1L24,9l-4.17.7a1,1,0,0,0-.83,1V14H17V10.69a3,3,0,0,1,2.51-2.95L23.84,7h.32l4.33.73A3,3,0,0,1,31,10.69Z"/></g></g></svg>