<svg xmlns="http://www.w3.org/2000/svg" viewBox="0 0 48 48"><title>15-Certificate</title><g id="_15-Certificate" data-name="15-Certificate"><path d="M45,40H43V38h2a1,1,0,0,0,1-1V3a1,1,0,0,0-1-1H3A1,1,0,0,0,2,3V37a1,1,0,0,0,1,1H27v2H3a3,3,0,0,1-3-3V3A3,3,0,0,1,3,0H45a3,3,0,0,1,3,3V37A3,3,0,0,1,45,40Z"/><path d="M24,35H11a1,1,0,0,1-1-1,4,4,0,0,0-4-4,1,1,0,0,1-1-1V11a1,1,0,0,1,1-1,4,4,0,0,0,4-4,1,1,0,0,1,1-1H37a1,1,0,0,1,1,1,4,4,0,0,0,4,4,1,1,0,0,1,1,1v9H41V11.917A6.017,6.017,0,0,1,36.083,7H11.917A6.017,6.017,0,0,1,7,11.917V28.083A6.017,6.017,0,0,1,11.917,33H24Z"/><path d="M35,39a9,9,0,1,1,9-9A9.011,9.011,0,0,1,35,39Zm0-16a7,7,0,1,0,7,7A7.008,7.008,0,0,0,35,23Z"/><path d="M40,48a1,1,0,0,1-.625-.219L35,44.281l-4.375,3.5A1,1,0,0,1,29,47V36h2v8.919l3.375-2.7a1,1,0,0,1,1.25,0L39,44.919V36h2V47a1,1,0,0,1-1,1Z"/><path d="M34,16H14a1,1,0,0,1-1-1V11a1,1,0,0,1,1-1H34a1,1,0,0,1,1,1v4A1,1,0,0,1,34,16ZM15,14H33V12H15Z"/><rect x="12" y="19" width="2" height="2"/><rect x="16" y="19" width="2" height="2"/><rect x="12" y="23" width="12" height="2"/><path d="M35,35a5,5,0,1,1,5-5A5.006,5.006,0,0,1,35,35Zm0-8a3,3,0,1,0,3,3A3,3,0,0,0,35,27Z"/><rect x="5" y="33" width="2" height="2"/><rect x="41" y="5" width="2" height="2"/><rect x="5" y="5" width="2" height="2"/></g></svg>