<svg xmlns="http://www.w3.org/2000/svg" viewBox="0 0 48 48"><title>22-Graduation</title><g id="_22-Graduation" data-name="22-Graduation"><rect x="23" y="27" width="2" height="8"/><path d="M24,28a.992.992,0,0,1-.492-.13l-23-13a1,1,0,0,1,0-1.742l23-13a1,1,0,0,1,.984,0l23,13a1,1,0,0,1,0,1.742l-23,13A.992.992,0,0,1,24,28ZM3.032,14,24,25.852,44.968,14,24,2.148Z"/><path d="M24,48a1.372,1.372,0,0,1-.583-.13l-15.909-9A1,1,0,0,1,7,38V18H9V37.417l14.956,8.46L39,37.415V18h2V38a1,1,0,0,1-.51.871l-16,9A.988.988,0,0,1,24,48Z"/><rect x="23" y="37" width="2" height="2"/><path d="M28,14H26a2,2,0,0,0-4,0H20a4,4,0,0,1,8,0Z"/><path d="M47,34H44a1,1,0,0,1-1-1V25a1,1,0,0,1,1-1h2V14h2V33A1,1,0,0,1,47,34Zm-2-2h1V26H45Z"/></g></svg>