<?xml version="1.0" encoding="UTF-8"?>
<!DOCTYPE svg PUBLIC "-//W3C//DTD SVG 1.1//EN" "http://www.w3.org/Graphics/SVG/1.1/DTD/svg11.dtd">
<!-- Creator: CorelDRAW -->
<svg xmlns="http://www.w3.org/2000/svg" xml:space="preserve" width="2048px" height="2048px" style="shape-rendering:geometricPrecision; text-rendering:geometricPrecision; image-rendering:optimizeQuality; fill-rule:evenodd; clip-rule:evenodd"
viewBox="0 0 2048 2048"
 xmlns:xlink="http://www.w3.org/1999/xlink">
 <defs>
  <style type="text/css">
   <![CDATA[
    .fil2 {fill:none}
    .fil0 {fill:#424242}
    .fil1 {fill:#424242;fill-rule:nonzero}
   ]]>
  </style>
 </defs>
 <g id="Layer_x0020_1">
  <metadata id="CorelCorpID_0Corel-Layer"/>
  <g id="_287623320">
   <path id="_287623968" class="fil0" d="M1020.83 642.843c284.979,0 516.002,93.4241 516.002,378.403 0,97.9843 -40.6689,205.854 -101.032,305.229 -7.80001,0.271654 -15.6036,0.636615 -23.4083,1.09606 -47.1733,-39.7276 -103.38,-71.439 -165.089,-93.8457 -69.1335,-25.102 -145.119,-38.5654 -222.936,-38.5654 -79.8166,0 -157.675,14.1803 -228.189,40.526 -59.8914,22.376 -114.411,53.55 -160.301,92.2961 -9.99686,-0.654331 -19.9925,-1.1563 -29.9858,-1.50591 -60.3697,-99.3768 -101.063,-207.242 -101.063,-305.23 0,-284.979 231.023,-378.403 516.002,-378.403zm84.3875 726.825c6.36615,3.84685 12.1618,8.2004 17.2677,13.0441 70.1989,-21.7677 143.014,-38.667 216.451,-48.1843 -32.974,-21.8209 -69.5103,-40.0146 -108.534,-54.1843 -63.5623,-23.0788 -133.779,-35.4579 -206.035,-35.4579 -74.1816,0 -146.132,13.0252 -210.903,37.2248 -37.6784,14.0764 -72.9638,31.9323 -104.874,53.1945 71.4473,9.64371 142.256,26.2181 210.584,47.4071 5.10591,-4.8437 10.9004,-9.19725 17.2665,-13.0441 24.75,-14.9551 55.8048,-20.4225 84.3886,-20.4225 28.5839,0 59.6374,5.46733 84.3875,20.4225zm-349.134 148.4c53.0056,53.3115 108.267,96.619 159.139,124.103 0.572835,0.00944883 1.14567,0.0141732 1.71732,0.0141732 23.374,0 45.6237,-9.21497 62.1485,-25.7398 12.7725,-12.7725 21.1772,-45.7654 24.3355,-70.8851 -25.5697,-3.3626 -49.8792,-14.0681 -69.5989,-30.9744 -2.1874,-1.87559 -4.32166,-3.83977 -6.39449,-5.88662 -57.1158,-0.903544 -114.523,2.05748 -171.347,9.36851zm208.654 146.213c20.0669,6.88938 38.9363,10.5661 56.093,10.5661 17.1555,0 36.026,-3.67796 56.0918,-10.5661 -13.6441,-5.93268 -26.1921,-14.4284 -36.9756,-25.2118 -7.51418,-7.51418 -13.9158,-15.8858 -19.1162,-24.887 -5.2004,9.00119 -11.602,17.3728 -19.1162,24.887 -10.7835,10.7835 -23.3315,19.2791 -36.9768,25.2118zm161.697 -22.1103c50.8701,-27.4819 106.134,-70.793 159.139,-124.104 -56.8217,-7.30985 -114.229,-10.2709 -171.344,-9.36733 -2.07284,2.04685 -4.20827,4.01103 -6.39567,5.88662 -19.7185,16.9063 -44.028,27.6118 -69.5977,30.9744 3.15827,25.1197 11.563,58.1126 24.3355,70.8851 16.5248,16.5248 38.7744,25.7398 62.1485,25.7398 0.571654,0 1.14213,-0.00472441 1.71378,-0.0141732zm-313.053 -756.245c26.7142,10.3311 37.1055,47.837 23.2075,83.7721 -13.8969,35.9362 -46.8189,56.6918 -73.5331,46.3607 -26.7142,-10.3311 -37.1055,-47.837 -23.2087,-83.7733 13.898,-35.9351 46.8201,-56.6906 73.5343,-46.3595zm414.896 0c-26.7142,10.3311 -37.1044,47.837 -23.2075,83.7721 13.898,35.9362 46.8201,56.6918 73.5343,46.3607 26.7142,-10.3311 37.1044,-47.837 23.2075,-83.7733 -13.8969,-35.9351 -46.8201,-56.6906 -73.5343,-46.3595z"/>
   <path id="_287624088" class="fil1" d="M1096.95 1383.36c-20.0103,-12.0898 -47.0304,-18.1169 -76.1138,-18.1169 -29.0823,0 -56.1048,6.02717 -76.1138,18.1169 -20.9232,12.6437 -33.7252,30.9036 -33.7252,54.7666 0,22.8024 12.7807,46.7622 33.2481,64.3111 19.6016,16.8047 46.4823,28.2638 76.591,28.2638 30.1075,0 56.9894,-11.4591 76.5898,-28.2638 20.4685,-17.5488 33.2492,-41.5099 33.2492,-64.3111 0,-23.863 -12.802,-42.1229 -33.7252,-54.7666z"/>
   <g>
    <path id="_287623704" class="fil1" d="M924.579 1434.73c8.38701,2.72599 17.3988,-1.86378 20.1248,-10.2508 2.72599,-8.38701 -1.86378,-17.3988 -10.2508,-20.1248 -113.628,-37.0583 -237.181,-62.1426 -358.912,-62.452 -104.033,-0.263386 -206.672,17.6032 -300.625,61.5579 -7.97363,3.72756 -11.4154,13.2142 -7.6878,21.1878 3.72756,7.97363 13.2142,11.4154 21.1878,7.6878 89.3788,-41.8146 187.454,-58.8107 287.125,-58.5579 117.897,0.298819 238.133,24.7819 349.038,60.952z"/>
    <path id="_287624064" class="fil1" d="M927.141 1463.03c8.7319,1.31102 16.8768,-4.70552 18.1878,-13.4374 1.31102,-8.7319 -4.70552,-16.8768 -13.4374,-18.1878 -113.745,-17.4106 -237.356,-21.124 -359.038,-0.373229 -103.815,17.7047 -206.186,53.2276 -299.812,113.235 -7.42087,4.76221 -9.5752,14.641 -4.813,22.0618 4.76221,7.42087 14.641,9.5752 22.0618,4.813 89.7072,-57.4949 188.049,-91.5745 287.938,-108.61 117.95,-20.1142 238.126,-16.4599 348.913,0.498426z"/>
    <path id="_287623560" class="fil1" d="M929.266 1492.73c8.80158,0.138189 16.05,-6.88583 16.1882,-15.6874 0.138189,-8.80158 -6.88583,-16.05 -15.6874,-16.1882 -113.745,-2.0941 -237.304,10.8201 -358.851,47.9162 -103.628,31.6252 -205.733,80.7816 -299,153.117 -6.97205,5.38465 -8.25946,15.4028 -2.87481,22.3748 5.38465,6.97205 15.4028,8.25946 22.3748,2.87481 90.0662,-69.8528 188.673,-117.324 288.75,-147.866 118.082,-36.039 238.311,-48.58 349.1,-46.5414z"/>
   </g>
   <path id="_287623944" class="fil1" d="M1107.21 1404.35c-8.38701,2.72599 -12.9768,11.7378 -10.2508,20.1248 2.72599,8.38701 11.7378,12.9768 20.1248,10.2508 110.907,-36.1713 231.142,-60.6532 349.04,-60.952 99.6709,-0.252756 197.746,16.7433 287.125,58.5579 7.97363,3.72756 17.4602,0.285827 21.1878,-7.6878 3.72756,-7.97363 0.285827,-17.4602 -7.6878,-21.1878 -93.9532,-43.9548 -196.592,-61.8213 -300.625,-61.5579 -121.733,0.309449 -245.284,25.3937 -358.914,62.452z"/>
   <path id="_287623536" class="fil1" d="M1109.78 1431.4c-8.7319,1.31102 -14.7484,9.45591 -13.4374,18.1878 1.31102,8.7319 9.45591,14.7484 18.1878,13.4374 110.789,-16.9583 230.965,-20.6126 348.913,-0.498426 99.8894,17.0351 198.232,51.1146 287.939,108.61 7.42087,4.76221 17.2996,2.60788 22.0618,-4.813 4.76221,-7.42087 2.60788,-17.2996 -4.813,-22.0618 -93.6261,-60.0071 -195.997,-95.53 -299.814,-113.235 -121.681,-20.7508 -245.292,-17.0374 -359.038,0.373229z"/>
   <path id="_287623800" class="fil1" d="M1111.9 1460.85c-8.80158,0.138189 -15.8256,7.38662 -15.6874,16.1882 0.138189,8.80158 7.38662,15.8256 16.1882,15.6874 110.79,-2.03858 231.019,10.5024 349.101,46.5402 100.077,30.5433 198.684,78.0131 288.75,147.867 6.97205,5.38465 16.9902,4.09725 22.3748,-2.87481 5.38465,-6.97205 4.09725,-16.9902 -2.87481,-22.3748 -93.267,-72.3355 -195.373,-121.492 -299,-153.118 -121.547,-37.0949 -245.106,-50.0091 -358.852,-47.915z"/>
   <path id="_287623440" class="fil0" d="M1530.74 903.803c93.1985,-1.15158 175.021,-37.4729 233.93,-129.197 51.9142,-80.8312 21.6555,-308.505 -22.6713,-387.671 -77.5654,74.7638 -131.639,156.276 -169.885,241.11 -42.3815,94.0099 -65.4142,192.371 -79.4729,290.273l38.0988 -14.5146zm190.778 -541.374c-54.1654,-33.4288 -173.141,112.656 -222.803,192.008 -34.3122,54.8245 -52.076,133.533 -58.0382,202.512l-17.9728 46.8201 43.9453 73.5095c14.8016,-88.3761 37.8048,-176.876 76.3418,-262.358 40.0607,-88.8591 96.8457,-174.235 178.527,-252.492z"/>
   <path id="_287623344" class="fil0" d="M517.261 903.803c-93.1985,-1.15158 -175.021,-37.4729 -233.93,-129.197 -51.9142,-80.8312 -21.6555,-308.505 22.6713,-387.671 77.5654,74.7638 131.639,156.276 169.885,241.11 42.3815,94.0099 65.4142,192.371 79.4729,290.273l-38.0988 -14.5146zm-190.778 -541.374c54.1654,-33.4288 173.141,112.656 222.803,192.008 34.3122,54.8245 52.076,133.533 58.0382,202.512l17.9728 46.8201 -43.9453 73.5095c-14.8016,-88.3761 -37.8048,-176.876 -76.3418,-262.358 -40.0607,-88.8591 -96.8457,-174.235 -178.527,-252.492z"/>
  </g>
 </g>
 <rect class="fil2" width="2048" height="2048"/>
</svg>
